<svg width="29" height="26" viewBox="0 0 29 26" fill="none" xmlns="http://www.w3.org/2000/svg">
<path d="M8.64462 9.70447H20.3554L16.247 1.78116C15.9399 1.18398 16.1715 0.448219 16.7606 0.137695C17.3547 -0.172829 18.0847 0.0595433 18.3918 0.656877L23.0792 9.70447H27.3889C28.28 9.70447 29 10.4763 29 11.3295C29 12.274 28.28 12.9544 27.3889 12.9544L24.7759 23.5371C24.3731 24.9844 23.1295 26 21.6493 26H7.30538C5.87049 26 4.5816 24.9844 4.22312 23.5371L1.61111 12.9544C0.721476 12.9544 0 12.274 0 11.3295C0 10.4763 0.721476 9.70447 1.61111 9.70447H5.92083L10.6082 0.656877C10.9153 0.0595433 11.6453 -0.172829 12.2394 0.137695C12.8285 0.448219 13.0601 1.18398 12.753 1.78116L8.64462 9.70447ZM9.62136 15.3919C9.62136 14.9857 9.30417 14.5794 8.8158 14.5794C8.41806 14.5794 8.01024 14.9857 8.01024 15.3919V20.2669C8.01024 20.7594 8.41806 21.0793 8.8158 21.0793C9.30417 21.0793 9.62136 20.7594 9.62136 20.2669V15.3919ZM13.6491 15.3919V20.2669C13.6491 20.7594 14.0569 21.0793 14.4547 21.0793C14.9431 21.0793 15.3056 20.7594 15.3056 20.2669V15.3919C15.3056 14.9857 14.9431 14.5794 14.4547 14.5794C14.0569 14.5794 13.6491 14.9857 13.6491 15.3919ZM20.9444 15.3919C20.9444 14.9857 20.5819 14.5794 20.1389 14.5794C19.6958 14.5794 19.3333 14.9857 19.3333 15.3919V20.2669C19.3333 20.7594 19.6958 21.0793 20.1389 21.0793C20.5819 21.0793 20.9444 20.7594 20.9444 20.2669V15.3919Z" fill="white"/>
</svg>
