<svg width="19" height="19" viewBox="0 0 19 19" fill="none" xmlns="http://www.w3.org/2000/svg">
<path d="M2.08481 0H8.57812C9.31649 0 10.0201 0.292742 10.5413 0.814379L18.1856 8.45651C19.2715 9.54235 19.2715 11.3057 18.1856 12.3916L12.3916 18.1856C11.3057 19.2715 9.54235 19.2715 8.45651 18.1856L0.814379 10.5413C0.292872 10.0201 0 9.31649 0 8.57812V2.08481C0 0.933387 0.933387 0 2.08481 0ZM4.86456 6.25443C5.63333 6.25443 6.25443 5.63333 6.25443 4.86456C6.25443 4.09578 5.63333 3.47468 4.86456 3.47468C4.09709 3.47468 3.47468 4.09578 3.47468 4.86456C3.47468 5.63333 4.09709 6.25443 4.86456 6.25443Z" fill="white"/>
</svg>
