<svg width="22" height="22" viewBox="0 0 22 22" fill="none" xmlns="http://www.w3.org/2000/svg">
<path d="M21.9677 16.6283L20.9686 20.9593C20.8282 21.5716 20.29 22 19.6596 22C8.81802 21.9991 0 13.1824 0 2.34193C0 1.71204 0.428396 1.17324 1.0408 1.0336L5.37246 0.0346262C6.0033 -0.111546 6.64789 0.215859 6.91003 0.813181L8.90912 5.47505C9.14281 6.02417 8.98519 6.66394 8.52323 7.04119L6.20957 8.89863C7.66979 11.8728 10.0883 14.2909 13.0637 15.7518L14.958 13.4402C15.3313 12.977 15.976 12.8168 16.5252 13.0546L21.1877 15.0529C21.7485 15.3479 22.1138 16.001 21.9677 16.6283Z" fill="white" fill-opacity="0.6"/>
</svg>
