<svg width="17" height="27" viewBox="0 0 17 27" fill="none" xmlns="http://www.w3.org/2000/svg">
<path d="M11.0509 2.53125C11.0509 3.92924 9.90864 5.0625 8.50074 5.0625C7.09284 5.0625 5.95058 3.92924 5.95058 2.53125C5.95058 1.13326 7.09284 0 8.50074 0C9.90864 0 11.0509 1.13326 11.0509 2.53125ZM8.07571 18.5625V25.3125C8.07571 26.2459 7.31597 27 6.3756 27C5.43523 27 4.6755 26.2459 4.6755 25.3125V13.5475L3.15762 16.0576C2.67415 16.8539 1.62965 17.1123 0.824757 16.6324C0.0198422 16.1525 -0.240518 15.1189 0.243162 14.3174L3.33932 9.20742C4.2611 7.6834 5.9187 6.75 7.70912 6.75H9.29235C11.0828 6.75 12.7404 7.6834 13.6648 9.20742L16.7569 14.3174C17.2403 15.1189 16.98 16.1525 16.1778 16.6324C15.3702 17.1123 14.3289 16.8539 13.8454 16.0576L12.326 13.5475V25.3125C12.326 26.2459 11.5662 27 10.6259 27C9.6855 27 8.92576 26.2459 8.92576 25.3125V18.5625H8.07571Z" fill="white" fill-opacity="0.6"/>
</svg>
