<svg width="19" height="26" viewBox="0 0 19 26" fill="none" xmlns="http://www.w3.org/2000/svg">
<path d="M4.75 0C5.62578 0 6.33333 0.727695 6.33333 1.625V6.5H3.16667V1.625C3.16667 0.727695 3.8757 0 4.75 0ZM14.25 0C15.1258 0 15.8333 0.727695 15.8333 1.625V6.5H12.6667V1.625C12.6667 0.727695 13.3742 0 14.25 0ZM17.4167 8.125C18.2925 8.125 19 8.85117 19 9.75C19 10.6488 18.2925 11.375 17.4167 11.375V13C17.4167 16.9305 14.6953 20.1652 11.0833 20.9625V26H7.91667V20.9625C4.3032 20.1652 1.58333 16.9305 1.58333 13V11.375C0.709037 11.375 0 10.6488 0 9.75C0 8.85117 0.709037 8.125 1.58333 8.125H17.4167Z" fill="white"/>
</svg>
