<svg width="17" height="22" viewBox="0 0 17 22" fill="none" xmlns="http://www.w3.org/2000/svg">
<g clip-path="url(#clip0_108_136)">
<path d="M4.9628 19.5207C4.9628 19.7913 5.0432 20.0553 5.19673 20.2809L5.95553 21.3847C6.18795 21.7231 6.71566 21.9983 7.13491 21.9983H9.86509C10.2829 21.9983 10.8107 21.7233 11.0431 21.3847L11.7993 20.2813C11.9293 20.0906 12.036 19.7498 12.036 19.5207L12.0417 17.8364H4.95837L4.9628 19.5207ZM8.47348 0.000600465C3.95962 0.0140282 0.708374 3.56515 0.708374 7.52386C0.708374 9.43081 1.43619 11.1693 2.63681 12.4996C3.36861 13.3092 4.51124 15.0017 4.94863 16.4291C4.95002 16.4399 4.95279 16.4513 4.95417 16.4627H12.0464C12.0477 16.4513 12.0505 16.4406 12.0519 16.4291C12.4891 15.0017 13.6319 13.3092 14.3637 12.4996C15.5657 11.2063 16.2917 9.47035 16.2917 7.52386C16.2917 3.37781 12.7899 -0.012157 8.47348 0.000600465ZM8.50004 4.12546C6.54637 4.12546 4.95837 5.66761 4.95837 7.52429C4.95837 7.94066 4.63962 8.25003 4.25004 8.25003C3.86046 8.25003 3.54171 7.94066 3.54171 7.56253C3.54171 4.90878 5.76632 2.78871 8.50004 2.78871C8.89157 2.78871 9.20837 3.09632 9.20837 3.47621C9.20837 3.85609 8.88962 4.12546 8.50004 4.12546Z" fill="white"/>
</g>
<defs>
<clipPath id="clip0_108_136">
<rect width="17" height="22" fill="white"/>
</clipPath>
</defs>
</svg>
