<svg width="25" height="23" viewBox="0 0 25 23" fill="none" xmlns="http://www.w3.org/2000/svg">
<g clip-path="url(#clip0_27_54)">
<path d="M12.1354 7.20547C12.2569 7.19199 12.3785 7.1875 12.5 7.1875C14.8004 7.1875 16.6667 9.07871 16.6667 11.5C16.6667 13.8809 14.8004 15.8125 12.5 15.8125C10.1606 15.8125 8.33334 13.8809 8.33334 11.5C8.33334 11.3742 8.33768 11.2484 8.3507 11.1227C8.75434 11.3248 9.22309 11.5 9.72223 11.5C11.2543 11.5 12.5 10.2107 12.5 8.625C12.5 8.1084 12.3307 7.62324 12.1354 7.20547ZM20.8594 5.0582C22.8906 7.00781 24.2491 9.30332 24.8915 10.9475C25.0347 11.3023 25.0347 11.6977 24.8915 12.0525C24.2491 13.6562 22.8906 15.9518 20.8594 17.9418C18.8151 19.9094 16.0069 21.5625 12.5 21.5625C8.99306 21.5625 6.1849 19.9094 4.1415 17.9418C2.11025 15.9518 0.75261 13.6562 0.10682 12.0525C-0.0356066 11.6977 -0.0356066 11.3023 0.10682 10.9475C0.75261 9.30332 2.11025 7.00781 4.1415 5.0582C6.1849 3.09242 8.99306 1.4375 12.5 1.4375C16.0069 1.4375 18.8151 3.09242 20.8594 5.0582ZM12.5 5.03125C9.04948 5.03125 6.25001 7.92871 6.25001 11.5C6.25001 15.0713 9.04948 17.9688 12.5 17.9688C15.9505 17.9688 18.75 15.0713 18.75 11.5C18.75 7.92871 15.9505 5.03125 12.5 5.03125Z" fill="white" fill-opacity="0.5"/>
</g>
<defs>
<clipPath id="clip0_27_54">
<rect width="25" height="23" fill="white"/>
</clipPath>
</defs>
</svg>
