<svg width="40" height="63" viewBox="0 0 40 63" fill="none" xmlns="http://www.w3.org/2000/svg">
<path d="M29.4498 19.6875H10.546C6.40854 19.6875 2.95354 22.7883 2.57854 26.8489L0.0335405 54.4114C-0.392584 59.0256 3.29604 63 8.00104 63H31.8885C36.5923 63 40.281 59.0244 39.856 54.4126L37.311 26.8501C37.0498 22.7883 33.5873 19.6875 29.4498 19.6875ZM19.8873 51.1875C15.5873 51.1875 11.9998 47.9514 11.9998 43.9647C11.9998 40.8885 16.7598 34.6783 18.9373 31.9959C19.4685 31.3423 20.531 31.3423 21.0623 31.9959C23.2373 34.6746 27.9998 40.8885 27.9998 43.9647C27.9998 47.9514 24.4123 51.1875 19.8873 51.1875ZM47.4123 11.5738L41.9973 6.24343C40.3873 4.76687 38.4623 3.93753 36.3498 3.93753H28.006C28.006 1.76329 26.2148 3.05176e-05 24.006 3.05176e-05H15.8873C13.6785 3.05176e-05 11.8873 1.76329 11.8873 3.93753L11.9998 15.75H27.9998L27.9998 11.8125H36.3435L41.7572 17.1417C42.5382 17.9105 43.8047 17.9105 44.586 17.1417L47.4135 14.3584C48.1998 13.5844 48.1998 12.3416 47.4123 11.5738Z" fill="white" fill-opacity="0.6"/>
</svg>
