<svg width="38" height="34" viewBox="0 0 38 34" fill="none" xmlns="http://www.w3.org/2000/svg">
<path d="M11.3274 12.6905H26.6726L21.2892 2.32921C20.8868 1.54828 21.1903 0.586132 21.9622 0.180062C22.7406 -0.226007 23.6972 0.0778643 24.0997 0.858993L30.2417 12.6905H35.8889C37.0566 12.6905 38 13.6998 38 14.8154C38 16.0506 37.0566 16.9404 35.8889 16.9404L32.4649 30.7793C31.9372 32.6719 30.3076 34 28.3681 34H9.57257C7.69236 34 6.00347 32.6719 5.53375 30.7793L2.11111 16.9404C0.945382 16.9404 0 16.0506 0 14.8154C0 13.6998 0.945382 12.6905 2.11111 12.6905H7.75833L13.9003 0.858993C14.3028 0.0778643 15.2594 -0.226007 16.0378 0.180062C16.8097 0.586132 17.1132 1.54828 16.7108 2.32921L11.3274 12.6905ZM12.6073 20.1279C12.6073 19.5966 12.1917 19.0654 11.5517 19.0654C11.0306 19.0654 10.4962 19.5966 10.4962 20.1279V26.5028C10.4962 27.1469 11.0306 27.5653 11.5517 27.5653C12.1917 27.5653 12.6073 27.1469 12.6073 26.5028V20.1279ZM17.8851 20.1279V26.5028C17.8851 27.1469 18.4194 27.5653 18.9406 27.5653C19.5806 27.5653 20.0556 27.1469 20.0556 26.5028V20.1279C20.0556 19.5966 19.5806 19.0654 18.9406 19.0654C18.4194 19.0654 17.8851 19.5966 17.8851 20.1279ZM27.4444 20.1279C27.4444 19.5966 26.9694 19.0654 26.3889 19.0654C25.8083 19.0654 25.3333 19.5966 25.3333 20.1279V26.5028C25.3333 27.1469 25.8083 27.5653 26.3889 27.5653C26.9694 27.5653 27.4444 27.1469 27.4444 26.5028V20.1279Z" fill="white" fill-opacity="0.6"/>
</svg>
