<svg width="17" height="20" viewBox="0 0 17 20" fill="none" xmlns="http://www.w3.org/2000/svg">
<path d="M10.4615 0C11.1849 0 11.7692 0.559766 11.7692 1.25C11.7692 1.94023 11.1849 2.5 10.4615 2.5H9.80769V3.8457C11.3401 4.07031 12.7377 4.6875 13.882 5.58594L14.7688 4.74219C15.2796 4.25391 16.105 4.25391 16.6159 4.74219C17.1267 5.23047 17.1267 6.01953 16.6159 6.50781L15.631 7.45313C16.4974 8.72266 17 10.2422 17 11.875C17 16.3633 13.1954 20 8.5 20C3.80457 20 0 16.3633 0 11.875C0 7.8125 3.11885 4.44531 7.19231 3.8457V2.5H6.53846C5.81514 2.5 5.23077 1.94023 5.23077 1.25C5.23077 0.559766 5.81514 0 6.53846 0H10.4615ZM9.48077 7.5C9.48077 6.98047 9.04351 6.5625 8.5 6.5625C7.95649 6.5625 7.51923 6.98047 7.51923 7.5V12.5C7.51923 13.0195 7.95649 13.4375 8.5 13.4375C9.04351 13.4375 9.48077 13.0195 9.48077 12.5V7.5Z" fill="white" fill-opacity="0.8"/>
</svg>
