<svg width="40" height="46" viewBox="0 0 40 46" fill="none" xmlns="http://www.w3.org/2000/svg">
<g clip-path="url(#clip0_51_269)">
<path d="M39.7409 30.4211L38.4222 27.5461C37.9552 26.5309 36.9374 25.875 35.8213 25.875H4.17488C3.06059 25.875 2.04809 26.5309 1.58024 27.5461L0.261488 30.4211C-0.145922 31.3111 -0.0747618 32.3501 0.449792 33.1757C0.974345 34.0014 1.88292 34.5 2.77667 34.5L2.77675 44.5625C2.77675 45.3564 3.4164 46 4.20533 46H7.06247C7.85157 46 8.49104 45.3564 8.49104 44.5625V34.5H31.3482V44.5625C31.3482 45.3564 31.9878 46 32.7767 46H35.5535C36.3426 46 36.9821 45.3564 36.9821 44.5625L37.1427 34.5C38.1168 34.5 39.0249 34.0003 39.549 33.1748C40.0731 32.3493 40.1427 31.3106 39.7409 30.4211ZM9.91952 11.5C9.91952 8.85144 11.3659 6.63948 13.4909 5.31249V23H17.7767L17.7775 4.31253H22.0632L22.0624 23H26.3481L26.3489 5.3098C28.5534 6.55862 29.9195 8.85144 29.9195 11.5L29.9187 23H34.2071L34.206 11.5C34.206 5.14898 29.089 3.05176e-05 22.7774 3.05176e-05H17.0624C10.8302 3.05176e-05 5.71238 5.14898 5.71238 11.5L5.71379 23H9.99682L9.91952 11.5Z" fill="white" fill-opacity="0.6"/>
</g>
<defs>
<clipPath id="clip0_51_269">
<rect width="40" height="46" fill="white"/>
</clipPath>
</defs>
</svg>
