<svg width="48" height="33" viewBox="0 0 48 33" fill="none" xmlns="http://www.w3.org/2000/svg">
<path d="M44.4 14.1429C42.4125 14.1429 40.8 15.7266 40.8 17.6786V23.5715H7.2V17.6786C7.2 15.7266 5.58825 14.1429 3.6 14.1429C1.61175 14.1429 0 15.7266 0 17.6786V31.8215C0 32.4697 0.5373 33 1.2 33H6C6.6627 33 7.1325 32.4723 7.1325 31.8215L7.2 30.6429H40.8V31.8215C40.8 32.4723 41.3373 33 42 33H46.8C47.4627 33 48 32.4723 48 31.8215V17.6786C48 15.7266 46.3875 14.1429 44.4 14.1429ZM9.6 17.6786V21.2143H38.4V17.6786C38.4 14.8331 40.4648 12.4524 43.2 11.9051V9.4286C43.2 4.22153 38.9018 3.05176e-05 33.6 3.05176e-05H14.3325C9.03075 3.05176e-05 4.7325 4.22153 4.7325 9.4286L4.8 11.9036C7.5375 12.4561 9.6 14.8353 9.6 17.6786Z" fill="white" fill-opacity="0.6"/>
</svg>
